<?xml version="1.0" encoding="UTF-8" standalone="no"?> <svg xmlns="http://www.w3.org/2000/svg" viewBox="0 0 64 64"><g id="Layer_93" data-name="Layer 93"><path d="M62,23.49a2.21,2.21,0,0,0-.05-.25l-2.33-10a2,2,0,0,0-1.95-1.54H44.2V4a2,2,0,0,0-2-2H21.66a2,2,0,0,0-2,2v7.73H6.22a2,2,0,0,0-1.95,1.54l-2.33,10a2.17,2.17,0,0,0,0,.25,8.93,8.93,0,0,0,7.46,9.62V60a2,2,0,0,0,2,2H52.49a2,2,0,0,0,2-2V33.11A8.92,8.92,0,0,0,62,23.49Zm-17.64.88c.06,3.25-2.65,5.17-5.74,4.84a4.65,4.65,0,0,1-4.65-4.65V15.73H44.32ZM29.93,23.23v1.33a4.66,4.66,0,0,1-4.65,4.65h-1.1a4.66,4.66,0,0,1-4.65-4.65V15.73h10.4ZM23.66,6H40.2v5.73H23.66ZM5.87,24l1.94-8.28h7.72v8.64C15.29,31,5.6,30.63,5.87,24ZM26.73,58V43.74h10.4V58Zm14.4,0V41.74a2,2,0,0,0-2-2H24.73a2,2,0,0,0-2,2V58H13.36V32.8A8.88,8.88,0,0,0,17.49,30a9,9,0,0,0,7.79,3.2,8.63,8.63,0,0,0,6.66-3.14,9,9,0,0,0,7.73,3.14A8.62,8.62,0,0,0,46.37,30a8.91,8.91,0,0,0,4.12,2.78V58Zm7.19-33.63V15.73h7.73L58,24C58.26,30.63,48.57,31,48.32,24.37Z"/></g></svg>